<!-- sample rectangle -->
<svg xmlns="http://www.w3.org/2000/svg" viewBox="0 0 32 32">
<path fill="#002E3D"
d="m 16 22 c -3.3137 0 -6 -2.6863 -6 -6 c 0 -3.3137 2.6863 -6 6 -6 c 3.3137 0 6 2.6863 6 6 c 0 3.3137 -2.6863 6 -6 6 z m -1 -17 h 2 v 3 h -2 v -3 z m 0 19 h 2 v 3 h -2 v -3 z m -7.4853 -15.0711 l 1.4142 -1.4142 l 2.1213 2.1213 l -1.4142 1.4142 l -2.1213 -2.1213 z m 13.435 13.4351 l 1.4143 -1.4143 l 2.1213 2.1214 l -1.4142 1.4142 l -2.1214 -2.1213 z m 2.1214 -14.8493 l 1.4142 1.4142 l -2.1213 2.1213 l -1.4143 -1.4142 l 2.1214 -2.1213 z m -13.4351 13.435 l 1.4142 1.4143 l -2.1213 2.1213 l -1.4142 -1.4142 l 2.1213 -2.1214 z m 17.364 -5.9497 v 2 h -3 v -2 h 3 z m -19 0 v 2 h -3 v -2 h 3 z"></path>
</svg>