<?xml version="1.0" standalone="no"?>
<!DOCTYPE svg PUBLIC "-//W3C//DTD SVG 20010904//EN"
 "http://www.w3.org/TR/2001/REC-SVG-20010904/DTD/svg10.dtd">
<svg version="1.0" xmlns="http://www.w3.org/2000/svg"
 width="700.000000pt" height="700.000000pt" viewBox="0 0 700.000000 700.000000"
 preserveAspectRatio="xMidYMid meet">
<metadata>
Created by potrace 1.14, written by Peter Selinger 2001-2017
</metadata>
<g transform="translate(0.000000,700.000000) scale(0.100000,-0.100000)"
fill="#000000" stroke="none">
<path d="M3280 5580 l0 -330 220 0 220 0 0 330 0 330 -220 0 -220 0 0 -330z"/>
<path d="M1797 5202 c-81 -81 -147 -152 -147 -157 0 -6 102 -113 228 -238
l227 -227 158 158 157 157 -228 228 c-125 125 -232 227 -237 227 -6 0 -77 -66
-158 -148z"/>
<path d="M4807 5122 l-227 -227 158 -158 157 -157 228 228 c125 125 227 232
227 237 0 13 -292 305 -305 305 -6 0 -113 -102 -238 -228z"/>
<path d="M3275 4794 c-273 -50 -509 -174 -705 -373 -254 -256 -380 -563 -380
-921 0 -358 126 -665 380 -921 253 -257 569 -389 930 -389 271 0 511 73 740
225 96 64 281 249 345 345 152 228 225 470 225 740 0 270 -73 512 -225 740
-64 96 -249 281 -345 345 -163 108 -336 178 -519 209 -117 20 -336 20 -446 0z"/>
<path d="M1090 3500 l0 -220 330 0 330 0 0 220 0 220 -330 0 -330 0 0 -220z"/>
<path d="M5250 3500 l0 -220 330 0 330 0 0 220 0 220 -330 0 -330 0 0 -220z"/>
<path d="M1877 2192 c-125 -125 -227 -232 -227 -237 0 -13 292 -305 305 -305
6 0 113 102 238 228 l227 227 -158 158 -157 157 -228 -228z"/>
<path d="M4737 2262 l-157 -157 228 -228 c125 -125 232 -227 237 -227 13 0
305 292 305 305 0 6 -102 113 -228 238 l-227 227 -158 -158z"/>
<path d="M3280 1420 l0 -330 220 0 220 0 0 330 0 330 -220 0 -220 0 0 -330z"/>
</g>
</svg>
